<svg xmlns="http://www.w3.org/2000/svg" xmlns:xlink="http://www.w3.org/1999/xlink" width="1728" zoomAndPan="magnify" viewBox="0 0 1296 1727.999927" height="2304" preserveAspectRatio="xMidYMid meet" version="1.0"><defs><clipPath id="id1"><path d="M 210 101 L 1044.191406 101 L 1044.191406 551 L 210 551 Z M 210 101 " clip-rule="nonzero"/></clipPath><clipPath id="id2"><path d="M 445 653 L 937 653 L 937 1312.996094 L 445 1312.996094 Z M 445 653 " clip-rule="nonzero"/></clipPath></defs><path fill="#0f0f0f" d="M 1217.433594 417.59375 C 1303.0625 648.417969 1281.652344 949.050781 1092.710938 1105.417969 C 904.699219 1262.714844 551.015625 1274.8125 323.910156 1110.070312 C 96.808594 946.257812 -3.710938 604.675781 86.570312 367.332031 C 177.785156 129.992188 459.800781 -2.175781 698.074219 11.785156 C 936.34375 25.75 1130.871094 186.769531 1217.433594 417.59375 Z M 1217.433594 417.59375 " fill-opacity="1" fill-rule="nonzero"/><path fill="#8b4937" d="M 694.882812 565.609375 C 709.03125 548.039062 742.792969 476.871094 742.851562 476.757812 C 745.398438 461.195312 745.738281 448.820312 743.898438 445.378906 C 743.804688 445.207031 743.691406 444.953125 743.578125 444.707031 C 741.441406 445.230469 739.113281 445.378906 736.636719 445.378906 C 728.929688 445.378906 711.695312 381.6875 711.695312 381.6875 C 709.132812 373.324219 707.121094 365 706.398438 357.453125 C 702.71875 352.207031 699.136719 348.84375 695.867188 348.425781 C 678.316406 346.1875 574.859375 342.03125 546.226562 337.875 C 517.589844 333.71875 494.496094 318.484375 484.339844 337.875 C 474.175781 357.269531 469.53125 385.765625 469.53125 391.28125 C 469.53125 396.796875 479.570312 426.75 498.210938 475.964844 C 508.617188 503.449219 519.425781 534.847656 524.230469 535.300781 C 539.03125 536.703125 548.074219 536.859375 550.84375 541.941406 C 553.617188 547.019531 550.382812 555.789062 553.617188 560.40625 C 556.84375 565.023438 557.679688 579.804688 575.042969 586.261719 C 592.410156 592.726562 585.941406 592.726562 587.328125 599.183594 C 588.714844 605.648438 582.296875 617.195312 601.902344 626.425781 C 611.996094 631.183594 624.976562 626.992188 637.714844 619.738281 C 637.722656 619.730469 678.238281 586.269531 694.882812 565.609375 " fill-opacity="1" fill-rule="nonzero"/><path fill="#6b3430" d="M 722.65625 539.167969 C 732.941406 520.914062 739.644531 496.324219 742.851562 476.757812 C 742.792969 476.871094 709.03125 548.039062 694.882812 565.609375 C 678.238281 586.269531 637.722656 619.730469 637.714844 619.738281 C 649.714844 612.898438 661.503906 603.347656 670.464844 595.949219 C 688.9375 580.71875 704.183594 571.953125 722.65625 539.167969 " fill-opacity="1" fill-rule="nonzero"/><g clip-path="url(#id1)"><path fill="#d1955b" d="M 460.890625 343.234375 C 460.890625 343.234375 469.078125 324.628906 480.800781 318.179688 C 510.65625 301.769531 572.523438 303.496094 577.050781 303.277344 C 581.574219 303.050781 622.160156 309.335938 622.160156 309.335938 C 670.648438 307.175781 694.253906 324.203125 737.386719 317.300781 L 737.386719 317.289062 C 782.160156 319.53125 806.042969 333.132812 829.1875 353.628906 C 844.035156 376.304688 839.257812 400.597656 840.851562 409.644531 C 844.714844 431.496094 844.855469 460.386719 844.855469 460.386719 C 844.855469 460.386719 844.855469 460.386719 880.734375 444.359375 C 940.117188 417.835938 1058.253906 338.910156 1042.824219 239.902344 C 1027.386719 140.882812 888.449219 100.144531 745.660156 101.015625 C 644.417969 101.632812 515.707031 100.753906 345.542969 219.683594 C 178.546875 336.410156 201.507812 443.078125 231.09375 494.507812 C 260.6875 545.949219 362.933594 550.078125 362.933594 550.078125 C 362.933594 550.078125 398.851562 524.136719 416.617188 505.453125 C 435.734375 485.359375 462.398438 451.925781 462.398438 451.925781 C 462.398438 451.925781 441.972656 353.351562 460.890625 343.234375 " fill-opacity="1" fill-rule="nonzero"/></g><path fill="#251417" d="M 737.386719 317.300781 L 735.546875 324.203125 C 735.546875 324.203125 764.96875 347.746094 769.824219 362.769531 C 774.679688 377.792969 769.632812 404.546875 764.871094 419.890625 C 760.90625 432.664062 758.289062 437.832031 758.289062 437.832031 C 758.289062 437.832031 801.84375 466.371094 829.1875 469.804688 C 829.1875 469.804688 847.390625 418.636719 832.398438 386.148438 C 828.359375 377.402344 824.035156 368.597656 818.703125 360.339844 C 804.117188 343.574219 779.5 326.980469 737.386719 317.300781 " fill-opacity="1" fill-rule="nonzero"/><path fill="#251417" d="M 468.691406 339.546875 C 467.238281 341.046875 463.167969 345.65625 459.835938 353.351562 C 455.460938 367.519531 455.589844 383.203125 457.691406 397.808594 C 467.820312 436.945312 484.601562 478.355469 484.601562 478.355469 L 498.210938 475.964844 C 498.210938 475.964844 471.316406 416.023438 469.53125 391.28125 C 469.164062 386.105469 470.835938 377.488281 471.550781 377.007812 L 496.527344 333.480469 C 496.527344 333.480469 547.96875 344.53125 556.039062 340.707031 C 562.222656 337.777344 571.234375 317.429688 575.132812 308.027344 C 538.789062 308.664062 491.382812 313.542969 471.230469 333.105469 C 469.554688 336.800781 468.769531 339.425781 468.691406 339.546875 " fill-opacity="1" fill-rule="nonzero"/><path fill="#8b4937" d="M 764.65625 368.519531 C 754.148438 348.921875 741.535156 323.625 721.382812 328.8125 C 708.28125 332.183594 705.0625 343.441406 706.398438 357.453125 C 722.027344 379.71875 739.53125 435.855469 743.578125 444.707031 C 748.089844 443.601562 751.761719 440.832031 754.132812 434.183594 C 757.636719 424.386719 775.148438 388.109375 764.65625 368.519531 " fill-opacity="1" fill-rule="nonzero"/><path fill="#6b3430" d="M 711.695312 381.6875 C 711.695312 381.6875 728.929688 445.378906 736.636719 445.378906 C 739.113281 445.378906 741.441406 445.230469 743.578125 444.707031 C 739.53125 435.855469 722.027344 379.71875 706.398438 357.453125 C 707.121094 365 709.132812 373.332031 711.695312 381.6875 " fill-opacity="1" fill-rule="nonzero"/><path fill="#622e2c" d="M 562.683594 565.347656 C 589.65625 560.929688 598.738281 548.5625 598.859375 548.441406 C 600.847656 546.046875 601.03125 545.574219 601.03125 545.574219 C 601.03125 545.574219 576.074219 549.730469 566.511719 550.507812 C 562.019531 550.871094 554.410156 549.730469 551.664062 554.664062 C 547.488281 562.148438 557.582031 570.296875 557.582031 570.296875 C 557.582031 570.296875 558.839844 565.984375 562.683594 565.347656 " fill-opacity="1" fill-rule="nonzero"/><path fill="#783b32" d="M 585.539062 557.269531 C 576.855469 562.054688 561.933594 568.996094 557.582031 570.296875 C 557.582031 570.296875 556.914062 572.621094 561.253906 579.742188 C 564.59375 585.207031 572.375 585.066406 574.617188 584.449219 C 582.65625 582.191406 589.3125 579.621094 592.113281 570.296875 C 594.910156 560.980469 598.867188 548.433594 598.867188 548.433594 C 598.867188 548.433594 598.859375 548.441406 598.859375 548.441406 C 596.585938 551.1875 590.1875 554.722656 585.539062 557.269531 " fill-opacity="1" fill-rule="nonzero"/><path fill="#251417" d="M 578.558594 560.929688 C 578.558594 560.929688 572.683594 562.183594 562.300781 564.789062 C 558.515625 565.738281 557.582031 570.296875 557.582031 570.296875 C 561.933594 568.996094 571.828125 568.328125 578.558594 560.929688 " fill-opacity="1" fill-rule="nonzero"/><path fill="#502825" d="M 829.199219 478.355469 C 829.199219 478.355469 828.414062 537.242188 846.421875 567.898438 C 864.433594 598.546875 920.039062 727.714844 920.039062 727.714844 L 927.109375 724.046875 C 927.109375 724.046875 883.496094 633.28125 873.875 610.589844 C 864.25 587.898438 847.949219 565.179688 843.292969 544.242188 C 838.636719 523.308594 834.558594 478.355469 834.558594 478.355469 L 829.199219 478.355469 " fill-opacity="1" fill-rule="nonzero"/><path fill="#b07f3d" d="M 726.976562 449.066406 L 729.628906 457.78125 C 729.628906 457.78125 700.992188 469.144531 701.636719 491.871094 C 702.28125 514.605469 711.199219 534.5 738.980469 534.359375 C 766.773438 534.21875 778.140625 518.769531 779.464844 501.339844 C 780.789062 483.914062 778.707031 473.1875 764.96875 464.148438 C 751.238281 455.121094 754.324219 458.15625 754.324219 458.15625 L 759.171875 449.066406 C 759.171875 449.066406 780.789062 454.363281 788.289062 470.660156 C 795.785156 486.945312 796.664062 506.859375 791.375 517.460938 C 786.082031 528.066406 769.386719 549.964844 740.210938 550.078125 C 711.035156 550.191406 698.542969 537.90625 689.902344 520.539062 C 682.527344 505.707031 684.375 480.828125 697.921875 466.625 C 709.910156 454.066406 726.976562 449.066406 726.976562 449.066406 " fill-opacity="1" fill-rule="nonzero"/><path fill="#251417" d="M 840.390625 406.121094 C 840.390625 406.121094 841.882812 456.0625 832.796875 467.339844 C 828.824219 472.261719 845.777344 494.421875 865.085938 504.445312 C 897.394531 521.21875 942.15625 520.078125 967.601562 475.199219 C 991.628906 432.824219 971.648438 388.476562 944.117188 379.507812 C 851.933594 349.480469 840.390625 406.121094 840.390625 406.121094 " fill-opacity="1" fill-rule="nonzero"/><path fill="#b07f3d" d="M 732.890625 439.007812 C 732.890625 441.859375 732.375 455.707031 737.746094 457.507812 C 743.105469 459.3125 746.042969 458.816406 748.625 458.179688 C 751.988281 457.351562 754.777344 442.066406 753.269531 439.636719 C 751.769531 437.207031 732.890625 436.167969 732.890625 439.007812 " fill-opacity="1" fill-rule="nonzero"/><path fill="#a55956" d="M 846.9375 571.410156 L 841.445312 561.886719 C 841.445312 561.886719 816.339844 567.960938 785.210938 578.835938 C 802.15625 569.710938 822.144531 561.941406 839.386719 556.773438 L 835.316406 545.433594 C 835.316406 545.433594 784.78125 563.699219 757.132812 583.261719 C 751.089844 587.542969 745.554688 592.046875 740.492188 596.683594 C 723.144531 604.65625 706.5625 613.804688 693.589844 623.964844 C 693.589844 623.964844 685.058594 636.757812 693.589844 641.742188 C 702.125 646.71875 701.417969 641.742188 701.417969 641.742188 C 701.417969 641.742188 693.566406 632.550781 722.59375 616.0625 C 710.808594 631.296875 703.914062 646.535156 701.96875 658.789062 L 711.496094 655.800781 C 711.496094 655.800781 735.234375 621.761719 754.132812 601.804688 C 793.394531 586.660156 846.9375 571.410156 846.9375 571.410156 " fill-opacity="1" fill-rule="nonzero"/><g clip-path="url(#id2)"><path fill="#fef3db" d="M 929.855469 727.714844 L 922.96875 732.5 C 928.601562 743.148438 928.976562 801.445312 924.148438 828 C 919.316406 854.550781 860.761719 1038.601562 860.761719 1038.601562 C 860.761719 1038.601562 867.660156 959.546875 873.875 933.003906 C 880.082031 906.453125 896.984375 823.78125 893.367188 791.792969 C 889.738281 759.8125 874.648438 699.472656 854.128906 679.5625 C 833.601562 659.652344 819.46875 639.828125 768.367188 667.640625 L 780.527344 673.679688 C 780.527344 673.679688 802.820312 662.066406 815.492188 663.265625 C 828.167969 664.476562 849.902344 682.578125 859.558594 704.902344 C 869.21875 727.230469 878.265625 745.9375 880.082031 766.449219 C 881.894531 786.964844 883.707031 822.570312 878.878906 849.121094 C 874.046875 875.671875 872.234375 891.96875 861.976562 949.289062 C 851.714844 1006.621094 845.671875 1050.660156 839.640625 1073.597656 C 833.601562 1096.523438 816.09375 1158.679688 812.476562 1177.992188 C 811.09375 1185.382812 805.425781 1194.332031 798.964844 1202.566406 C 796.820312 1208.847656 794.722656 1214.453125 792.691406 1219.226562 C 784.128906 1228.996094 776.09375 1236.351562 776.09375 1236.351562 C 776.09375 1236.351562 726.027344 1220.550781 693.851562 1175.832031 C 681.769531 1162.367188 669.644531 1146.21875 658.488281 1126.882812 C 653.726562 1120.871094 649.011719 1114.867188 644.425781 1108.664062 C 642.523438 1104.488281 640.660156 1100.234375 638.871094 1095.828125 C 637.554688 1092.601562 636.308594 1089.394531 635.082031 1086.207031 C 617.898438 1060.097656 603.785156 1028.195312 598.605469 976.355469 C 593.542969 925.753906 597.972656 896.640625 599.148438 881.3125 C 598.808594 881.285156 596.996094 881.15625 593.941406 880.929688 L 517.945312 874.800781 C 501.546875 894.015625 445.566406 920.0625 445.773438 973.601562 C 445.949219 1017.730469 469.660156 1062.121094 472.789062 1123.6875 C 479.320312 1251.808594 480.792969 1255.695312 483.441406 1261.820312 C 524.238281 1356.109375 796.605469 1298.246094 801.398438 1261.820312 C 804.160156 1240.847656 831.628906 1130.152344 842.753906 1112.078125 C 853.875 1094.003906 916.300781 915.574219 926.5625 858.515625 C 936.820312 801.445312 940.824219 743.777344 929.855469 727.714844 " fill-opacity="1" fill-rule="nonzero"/></g><path fill="#793f33" d="M 599.21875 872.214844 C 599.539062 874.445312 599.445312 877.453125 599.148438 881.3125 C 599.183594 881.320312 599.21875 881.320312 599.21875 881.320312 C 599.21875 881.320312 591.511719 972.851562 635.082031 1086.207031 C 638.105469 1090.808594 641.234375 1095.234375 644.425781 1099.546875 C 648.863281 1109.296875 653.578125 1118.386719 658.488281 1126.882812 C 668.695312 1139.808594 679.066406 1152.800781 688.675781 1168.164062 C 690.332031 1170.8125 692.074219 1173.355469 693.851562 1175.832031 C 734.851562 1221.5 775.316406 1235.941406 775.316406 1235.941406 L 788.148438 1219.621094 C 789.621094 1216.960938 791.136719 1213.773438 792.691406 1210.121094 C 794.789062 1207.722656 796.917969 1205.179688 798.964844 1202.566406 C 821.210938 1137.402344 848.523438 997.113281 860.660156 903.472656 C 874.859375 793.882812 881.386719 767.105469 860.660156 737.503906 C 839.929688 707.890625 817.21875 690.132812 770.828125 672.363281 C 724.425781 654.605469 697.765625 670.394531 656.308594 682.238281 C 614.839844 694.082031 524.902344 713.113281 493.667969 713.886719 C 473.984375 714.382812 435.742188 715.175781 410.105469 715.707031 C 404.054688 719.378906 377.25 736.328125 351.992188 749.414062 C 324.449219 763.695312 294.042969 762.816406 294.042969 762.816406 C 307.691406 759.878906 347.128906 751.769531 385.582031 714.671875 C 389.914062 709.207031 405.292969 689.234375 421.820312 660.808594 C 441.347656 627.242188 549.109375 524.199219 581.765625 490.632812 C 614.421875 457.066406 645.445312 440.59375 662.105469 422.714844 C 678.753906 404.832031 708.59375 373.976562 711.175781 366.558594 C 713.753906 359.152344 756.164062 288.21875 759.667969 277.199219 C 765.082031 260.230469 785.488281 218.167969 784.519531 210.429688 C 783.554688 202.683594 779.996094 199.457031 771.609375 202.039062 C 763.214844 204.617188 749.667969 232.6875 747.082031 238.8125 C 744.5 244.9375 700.292969 317.847656 700.292969 317.847656 L 696.425781 316.882812 C 696.425781 316.882812 734.5 252.363281 739.015625 243.324219 C 743.53125 234.296875 758.335938 202.542969 760.742188 196.671875 C 763.148438 190.796875 770.511719 174.726562 767.835938 170.71875 C 765.167969 166.710938 761.8125 163.417969 752.851562 166.617188 C 743.898438 169.8125 727.902344 203.066406 719.585938 219.703125 C 711.269531 236.328125 669.84375 306.460938 669.84375 306.460938 L 665.113281 305.378906 C 665.113281 305.378906 686.433594 263.402344 692.894531 252.421875 C 699.363281 241.433594 718.09375 207.207031 719.386719 198.160156 C 720.675781 189.125 731.023438 171.6875 719.386719 169.742188 C 707.757812 167.808594 699.363281 178.144531 690.957031 196.035156 C 682.554688 213.933594 667.699219 233.6875 661.886719 244.667969 C 656.070312 255.648438 628.289062 303.445312 628.289062 303.445312 L 622.464844 302.15625 C 622.464844 302.15625 628.457031 286.277344 633.449219 273.085938 C 639.167969 258 653.847656 224.335938 658.007812 211.726562 C 661.300781 201.742188 661.511719 193.289062 654.398438 192.644531 C 647.292969 192 644.433594 195.582031 632.160156 213.664062 C 619.886719 231.753906 601.144531 277.605469 588.226562 296.34375 C 575.304688 315.070312 561.085938 333.796875 548.8125 360.921875 C 536.53125 388.058594 533.847656 390.621094 522.480469 413.335938 C 511.121094 436.054688 485.515625 456.839844 376.429688 557.941406 C 267.332031 659.039062 195.929688 722.027344 182.84375 746.476562 C 169.757812 770.929688 174.125 785.726562 182.84375 802.589844 C 191.558594 819.449219 257.507812 842.847656 337.984375 855.675781 C 380.195312 862.402344 458.144531 869.714844 517.945312 874.800781 C 553.199219 871.8125 587.761719 871.34375 599.21875 872.214844 " fill-opacity="1" fill-rule="nonzero"/><path fill="#401f21" d="M 599.148438 881.3125 C 599.445312 877.453125 599.539062 874.445312 599.21875 872.214844 C 587.761719 871.34375 553.199219 871.8125 517.945312 874.800781 L 593.941406 880.929688 C 596.996094 881.15625 598.808594 881.285156 599.148438 881.3125 " fill-opacity="1" fill-rule="nonzero"/><path fill="#793f33" d="M 635.082031 1086.207031 C 636.308594 1089.394531 637.554688 1092.601562 638.871094 1095.828125 C 640.660156 1100.234375 642.523438 1104.488281 644.425781 1108.664062 C 649.011719 1114.867188 653.726562 1120.871094 658.488281 1126.882812 C 653.578125 1118.386719 648.863281 1109.296875 644.425781 1099.546875 C 641.234375 1095.234375 638.105469 1090.808594 635.082031 1086.207031 " fill-opacity="1" fill-rule="nonzero"/><path fill="#793f33" d="M 788.148438 1219.621094 L 775.316406 1235.941406 C 775.316406 1235.941406 734.851562 1221.5 693.851562 1175.832031 C 726.027344 1220.550781 776.09375 1236.351562 776.09375 1236.351562 C 776.09375 1236.351562 784.128906 1228.996094 792.691406 1219.226562 C 794.722656 1214.453125 796.820312 1208.847656 798.964844 1202.566406 C 796.917969 1205.179688 794.789062 1207.722656 792.691406 1210.121094 C 791.136719 1213.773438 789.621094 1216.960938 788.148438 1219.621094 " fill-opacity="1" fill-rule="nonzero"/><path fill="#401f21" d="M 776.09375 1228.542969 C 776.09375 1228.542969 720.328125 1210.976562 688.675781 1160.355469 C 674.597656 1137.847656 657.023438 1124.121094 642.585938 1104.566406 C 691.375 1211.757812 775.316406 1237.246094 775.316406 1237.246094 L 791.496094 1223.183594 C 792.96875 1220.527344 794.878906 1213.363281 796.4375 1209.710938 C 787.878906 1219.480469 776.09375 1228.542969 776.09375 1228.542969 " fill-opacity="1" fill-rule="nonzero"/></svg>