<svg xmlns="http://www.w3.org/2000/svg" xmlns:xlink="http://www.w3.org/1999/xlink" width="500" zoomAndPan="magnify" viewBox="0 0 375 374.999991" height="500" preserveAspectRatio="xMidYMid meet" version="1.0"><defs><g/></defs><g fill="#ffffff" fill-opacity="1"><g transform="translate(184.726103, 249.879745)"><g><path d="M 16.058594 -178.425781 C 17.398438 -158.578125 17.398438 -150.324219 17.398438 -136.71875 L 17.398438 -41.929688 C 17.398438 -28.101562 17.171875 -19.851562 15.613281 0 L 105.050781 0 L 110.402344 -9.144531 C 88.320312 -3.792969 71.816406 -2.898438 50.40625 -2.898438 L 30.109375 -2.898438 L 30.109375 -136.71875 C 30.109375 -150.324219 30.332031 -158.578125 31.449219 -178.425781 Z M 16.058594 -178.425781 "/></g></g></g><g fill="#fbfaf9" fill-opacity="1"><g transform="translate(36.638534, 266.882099)"><g><path d="M 6.15625 -5.75 L 3.796875 -3.34375 L 3.796875 0 L 1.9375 0 L 1.9375 -12.953125 L 3.796875 -12.953125 L 3.796875 -5.71875 L 10.828125 -12.953125 L 12.9375 -12.953125 L 7.40625 -7.125 L 13.28125 0 L 11.125 0 Z M 6.15625 -5.75 "/></g></g></g><g fill="#fbfaf9" fill-opacity="1"><g transform="translate(64.74866, 266.882099)"><g><path d="M 10.59375 0 L 7.8125 -3.984375 C 7.457031 -3.953125 7.1875 -3.9375 7 -3.9375 L 3.796875 -3.9375 L 3.796875 0 L 1.9375 0 L 1.9375 -12.953125 L 7 -12.953125 C 8.675781 -12.953125 9.992188 -12.550781 10.953125 -11.75 C 11.910156 -10.945312 12.390625 -9.84375 12.390625 -8.4375 C 12.390625 -7.4375 12.144531 -6.582031 11.65625 -5.875 C 11.164062 -5.175781 10.460938 -4.664062 9.546875 -4.34375 L 12.609375 0 Z M 6.9375 -5.515625 C 8.101562 -5.515625 8.992188 -5.765625 9.609375 -6.265625 C 10.234375 -6.773438 10.546875 -7.5 10.546875 -8.4375 C 10.546875 -9.375 10.234375 -10.09375 9.609375 -10.59375 C 8.992188 -11.09375 8.101562 -11.34375 6.9375 -11.34375 L 3.796875 -11.34375 L 3.796875 -5.515625 Z M 6.9375 -5.515625 "/></g></g></g><g fill="#fbfaf9" fill-opacity="1"><g transform="translate(93.006764, 266.882099)"><g><path d="M 6.90625 -4.484375 L 6.90625 0 L 5.0625 0 L 5.0625 -4.515625 L -0.078125 -12.953125 L 1.90625 -12.953125 L 6.046875 -6.125 L 10.21875 -12.953125 L 12.046875 -12.953125 Z M 6.90625 -4.484375 "/></g></g></g><g fill="#fbfaf9" fill-opacity="1"><g transform="translate(119.785145, 266.882099)"><g><path d="M 7 -12.953125 C 8.675781 -12.953125 9.992188 -12.550781 10.953125 -11.75 C 11.910156 -10.945312 12.390625 -9.84375 12.390625 -8.4375 C 12.390625 -7.03125 11.910156 -5.925781 10.953125 -5.125 C 9.992188 -4.320312 8.675781 -3.921875 7 -3.921875 L 3.796875 -3.921875 L 3.796875 0 L 1.9375 0 L 1.9375 -12.953125 Z M 6.9375 -5.53125 C 8.101562 -5.53125 8.992188 -5.78125 9.609375 -6.28125 C 10.234375 -6.78125 10.546875 -7.5 10.546875 -8.4375 C 10.546875 -9.375 10.234375 -10.09375 9.609375 -10.59375 C 8.992188 -11.09375 8.101562 -11.34375 6.9375 -11.34375 L 3.796875 -11.34375 L 3.796875 -5.53125 Z M 6.9375 -5.53125 "/></g></g></g><g fill="#fbfaf9" fill-opacity="1"><g transform="translate(147.950766, 266.882099)"><g><path d="M 4.515625 -11.34375 L 0.078125 -11.34375 L 0.078125 -12.953125 L 10.78125 -12.953125 L 10.78125 -11.34375 L 6.34375 -11.34375 L 6.34375 0 L 4.515625 0 Z M 4.515625 -11.34375 "/></g></g></g><g fill="#fbfaf9" fill-opacity="1"><g transform="translate(173.619342, 266.882099)"><g><path d="M 1.9375 -12.953125 L 3.796875 -12.953125 L 3.796875 0 L 1.9375 0 Z M 1.9375 -12.953125 "/></g></g></g><g fill="#fbfaf9" fill-opacity="1"><g transform="translate(194.164369, 266.882099)"><g><path d="M 7.734375 0.140625 C 6.441406 0.140625 5.269531 -0.144531 4.21875 -0.71875 C 3.175781 -1.289062 2.359375 -2.078125 1.765625 -3.078125 C 1.179688 -4.085938 0.890625 -5.21875 0.890625 -6.46875 C 0.890625 -7.726562 1.179688 -8.859375 1.765625 -9.859375 C 2.359375 -10.867188 3.179688 -11.660156 4.234375 -12.234375 C 5.285156 -12.804688 6.457031 -13.09375 7.75 -13.09375 C 8.757812 -13.09375 9.679688 -12.921875 10.515625 -12.578125 C 11.359375 -12.242188 12.078125 -11.742188 12.671875 -11.078125 L 11.46875 -9.921875 C 10.5 -10.941406 9.285156 -11.453125 7.828125 -11.453125 C 6.859375 -11.453125 5.984375 -11.234375 5.203125 -10.796875 C 4.429688 -10.367188 3.828125 -9.773438 3.390625 -9.015625 C 2.953125 -8.253906 2.734375 -7.40625 2.734375 -6.46875 C 2.734375 -5.53125 2.953125 -4.679688 3.390625 -3.921875 C 3.828125 -3.171875 4.429688 -2.578125 5.203125 -2.140625 C 5.984375 -1.710938 6.859375 -1.5 7.828125 -1.5 C 9.265625 -1.5 10.476562 -2.015625 11.46875 -3.046875 L 12.671875 -1.890625 C 12.078125 -1.222656 11.359375 -0.71875 10.515625 -0.375 C 9.671875 -0.03125 8.742188 0.140625 7.734375 0.140625 Z M 7.734375 0.140625 "/></g></g></g><g fill="#fbfaf9" fill-opacity="1"><g transform="translate(222.348497, 266.882099)"><g/></g></g><g fill="#fbfaf9" fill-opacity="1"><g transform="translate(242.135163, 266.882099)"><g><path d="M 1.9375 -12.953125 L 3.796875 -12.953125 L 3.796875 -1.609375 L 10.796875 -1.609375 L 10.796875 0 L 1.9375 0 Z M 1.9375 -12.953125 "/></g></g></g><g fill="#fbfaf9" fill-opacity="1"><g transform="translate(267.933225, 266.882099)"><g><path d="M 10.1875 -3.234375 L 3.3125 -3.234375 L 1.890625 0 L -0.015625 0 L 5.84375 -12.953125 L 7.671875 -12.953125 L 13.5625 0 L 11.625 0 Z M 9.546875 -4.71875 L 6.75 -11.0625 L 3.953125 -4.71875 Z M 9.546875 -4.71875 "/></g></g></g><g fill="#fbfaf9" fill-opacity="1"><g transform="translate(296.283816, 266.882099)"><g><path d="M 1.9375 -12.953125 L 7.40625 -12.953125 C 8.769531 -12.953125 9.984375 -12.679688 11.046875 -12.140625 C 12.109375 -11.597656 12.929688 -10.832031 13.515625 -9.84375 C 14.097656 -8.863281 14.390625 -7.738281 14.390625 -6.46875 C 14.390625 -5.195312 14.097656 -4.070312 13.515625 -3.09375 C 12.929688 -2.113281 12.109375 -1.351562 11.046875 -0.8125 C 9.984375 -0.269531 8.769531 0 7.40625 0 L 1.9375 0 Z M 7.28125 -1.609375 C 8.332031 -1.609375 9.253906 -1.8125 10.046875 -2.21875 C 10.847656 -2.625 11.460938 -3.191406 11.890625 -3.921875 C 12.328125 -4.660156 12.546875 -5.507812 12.546875 -6.46875 C 12.546875 -7.4375 12.328125 -8.285156 11.890625 -9.015625 C 11.460938 -9.753906 10.847656 -10.328125 10.046875 -10.734375 C 9.253906 -11.140625 8.332031 -11.34375 7.28125 -11.34375 L 3.796875 -11.34375 L 3.796875 -1.609375 Z M 7.28125 -1.609375 "/></g></g></g><g fill="#fbfaf9" fill-opacity="1"><g transform="translate(326.373076, 266.882099)"><g><path d="M 6.90625 -4.484375 L 6.90625 0 L 5.0625 0 L 5.0625 -4.515625 L -0.078125 -12.953125 L 1.90625 -12.953125 L 6.046875 -6.125 L 10.21875 -12.953125 L 12.046875 -12.953125 Z M 6.90625 -4.484375 "/></g></g></g><g fill="#ffffff" fill-opacity="1"><g transform="translate(54.560735, 249.879745)"><g><path d="M 122.222656 -23.417969 L 55.089844 -103.933594 L 102.59375 -157.238281 C 108.839844 -164.152344 113.746094 -169.730469 123.335938 -178.425781 L 115.753906 -178.425781 C 109.957031 -169.730469 105.496094 -164.597656 98.804688 -157.015625 L 29.664062 -79.398438 L 29.664062 -136.71875 C 29.664062 -150.324219 29.886719 -158.578125 31 -178.425781 L 15.613281 -178.425781 C 16.949219 -158.578125 16.949219 -150.324219 16.949219 -136.71875 L 16.949219 -41.929688 C 16.949219 -28.101562 16.949219 -19.851562 15.613281 0 L 31 0 C 29.886719 -19.851562 29.664062 -28.101562 29.664062 -41.929688 L 29.664062 -75.386719 L 46.390625 -94.121094 L 105.941406 -23.417969 C 114.191406 -13.605469 118.429688 -8.699219 123.785156 0 L 145.417969 0 C 135.160156 -8.699219 129.804688 -14.273438 122.222656 -23.417969 Z M 122.222656 -23.417969 "/></g></g></g></svg>